<svg width="291" height="72" viewBox="0 0 291 72" fill="none" xmlns="http://www.w3.org/2000/svg">
<path d="M61.98 8.2979C61.9922 11.4979 60.4673 14.3837 57.4051 16.9555C54.3001 19.4847 50.9769 20.7561 47.4356 20.7697C46.1556 20.7746 45.0241 20.5443 44.041 20.0787C43.2283 19.5698 42.7779 18.9315 42.6896 18.1639C42.6823 16.2439 43.2972 15.2815 44.5346 15.2768C45.2599 15.274 45.645 15.5499 45.6897 16.1044C45.6906 16.3177 45.5847 16.5314 45.3722 16.7456C45.2872 16.8312 45.2236 16.9381 45.1814 17.0663C45.1818 17.1516 45.1609 17.2797 45.1189 17.4505C45.121 18.0052 45.4429 18.4946 46.0845 18.9189C46.7688 19.3429 47.623 19.553 48.647 19.5491C51.0363 19.5399 53.3363 18.4857 55.5469 16.3866C57.7999 14.202 58.9221 12.0003 58.9136 9.78165C58.9059 7.77634 57.8754 6.0736 55.822 4.67346C53.9395 3.31533 51.4622 2.64214 48.3902 2.65391C43.5263 2.67254 38.1988 4.20762 32.4078 7.25916C26.1907 10.483 23.0892 13.9082 23.1031 17.5349C23.113 20.1375 24.7632 22.0939 28.0536 23.404L45.3585 29.8657C49.6311 31.428 51.7735 33.7878 51.7856 36.9452C51.8042 41.8091 49.3447 45.7652 44.407 48.8135C41.8953 50.2738 39.0195 51.3728 35.7796 52.1106C32.5399 52.891 28.8508 53.3105 24.7123 53.369C17.971 53.3948 12.164 52.265 7.29121 49.9797C2.5461 47.6085 0.167166 44.7589 0.154419 41.4309C0.144123 38.743 1.92876 36.8161 5.50832 35.6504C7.08534 35.2177 7.93875 35.2358 8.06854 35.7046C7.94087 35.7904 7.7707 35.9191 7.55802 36.0906C7.34518 36.2194 7.08983 36.391 6.79199 36.6055C6.5368 36.8198 6.23904 37.0556 5.89869 37.3129C4.49413 38.2143 3.77346 39.4331 3.73668 40.9692C3.74991 44.4252 5.78702 47.1481 9.84801 49.1379C13.738 51.043 19.1818 52.0248 26.1794 52.0833C29.5074 52.0706 32.5356 51.7603 35.2639 51.1525C38.0349 50.5446 40.5487 49.5963 42.8051 48.3076C47.2331 45.8587 49.44 42.7995 49.426 39.1302C49.415 36.2716 47.444 34.0818 43.5128 32.5608L26.3987 25.7783C23.0231 24.5112 21.3077 22.2351 21.2525 18.95C21.2353 14.47 24.2276 10.3625 30.2293 6.6275C36.2736 2.84965 42.8583 0.947084 49.9836 0.919793C53.7809 0.905248 56.7275 1.57663 58.8234 2.93395C60.8338 4.24893 61.886 6.03691 61.98 8.2979ZM87.2789 40.0732C87.2798 40.3292 87.1741 40.5643 86.9616 40.7785C77.6904 48.6647 71.1774 52.615 67.4228 52.6294C65.4175 52.6371 64.2165 50.9776 63.8197 47.6511C62.7151 48.8927 61.0768 50.0297 58.9047 51.062C57.2435 51.7937 56.029 52.1824 55.2612 52.228C54.5785 52.2306 53.9587 51.9343 53.4018 51.3391C52.8025 50.8294 52.4799 50.1693 52.4342 49.3588C52.4286 47.9081 53.0631 46.4763 54.3377 45.0634C54.9754 44.4637 55.9112 43.7134 57.1451 42.8127C58.3789 41.8693 59.9533 40.7752 61.8686 39.5306C62.2526 39.5291 62.3817 39.8273 62.256 40.4251C61.7027 40.7685 61.1495 41.1547 60.5964 41.5834C60.0433 41.9696 59.4688 42.3771 58.8731 42.8061C56.832 44.6059 55.7929 46.2312 55.7558 47.682C55.7608 49.0047 56.1476 49.7285 56.9161 49.8536C57.3428 49.852 58.1736 49.5501 59.4086 48.948C60.1753 48.6038 60.8567 48.2598 61.4527 47.9162C62.0486 47.5299 62.5805 47.1652 63.0485 46.8221C63.9421 46.1787 65.3439 44.5733 67.2541 42.0059C68.7826 40.0374 69.8882 39.0518 70.5708 39.0492C71.0828 39.0473 71.361 39.2809 71.4055 39.75C71.4063 39.9634 71.2156 40.3054 70.8334 40.7762C70.4512 41.247 69.835 41.8894 68.9848 42.7033C67.4544 44.1599 66.6911 45.4001 66.695 46.4241C66.6988 47.4054 67.0007 48.2576 67.6008 48.9807C68.0729 49.7042 68.6505 50.1073 69.3335 50.19C71.1681 50.183 74.1069 48.8064 78.1497 46.0602C78.7454 45.6313 79.724 44.9022 81.0854 43.873C82.4468 42.8438 84.2762 41.4714 86.5736 39.7559C86.7015 39.7128 86.8294 39.691 86.9574 39.6905C87.1281 39.6898 87.2352 39.8174 87.2789 40.0732ZM106.83 39.9984C106.831 40.2543 106.746 40.4893 106.576 40.7033C101.643 44.7756 98.6225 47.1765 97.5159 47.9061C93.1321 50.7389 88.359 52.2079 83.1967 52.313C81.6181 52.319 80.3582 52.0038 79.4171 51.3674C79.0751 51.1981 78.3045 50.5184 77.1052 49.3283C77.1041 49.0296 77.1459 48.7948 77.2305 48.6238C76.5068 49.0532 75.8256 49.4398 75.187 49.7836C74.5056 50.1276 73.8454 50.4288 73.2064 50.6872C72.4811 50.69 72.0967 50.5848 72.0532 50.3716C72.0527 50.2436 72.1161 50.0941 72.2435 49.9229C72.3282 49.7519 72.4766 49.5167 72.6888 49.2172C74.6903 48.2282 76.7552 47.0469 78.8832 45.6734C80.9685 44.2574 83.1384 42.6491 85.3928 40.8485C85.3926 40.8058 85.4137 40.7417 85.4561 40.6562C86.6471 39.713 87.9252 39.1961 89.2902 39.1055C91.4235 39.0974 92.4938 40.0533 92.5012 41.9732C92.5061 43.2532 91.8505 44.7704 90.5346 46.5248C89.3886 48.1079 88.241 49.243 87.0916 49.93C89.7369 49.9199 93.209 48.5413 97.5078 45.7941C98.487 45.2357 99.6788 44.4631 101.083 43.4764C102.487 42.447 104.168 41.1819 106.124 39.681C106.252 39.6379 106.402 39.616 106.572 39.6153C106.7 39.6148 106.786 39.7425 106.83 39.9984ZM89.4324 42.817C89.4283 41.7503 88.8716 41.2191 87.7623 41.2234C87.5063 41.2244 87.2716 41.2253 87.0583 41.2261C86.8449 41.2269 86.6744 41.2702 86.5468 41.356C84.9307 42.7276 83.4421 43.9706 82.081 45.0852C80.6771 46.1572 79.3795 47.1222 78.1881 47.9801C78.4014 47.9793 78.5936 48.0212 78.7646 48.1059C80.2186 48.9963 81.4579 49.4823 82.4822 49.5637C83.3782 49.5602 84.2521 49.3649 85.1039 48.9776C85.9556 48.5477 86.7424 47.8833 87.4643 46.9846C88.1015 46.2568 88.5683 45.5723 88.8645 44.9312C89.1605 44.2474 89.3498 43.5427 89.4324 42.817ZM112.102 35.1781C112.106 36.3728 111.255 36.9734 109.549 36.9799C107.885 36.9863 107.05 36.3921 107.046 35.1975C107.041 33.9602 107.871 33.3383 109.535 33.3319C111.241 33.3254 112.097 33.9408 112.102 35.1781ZM122.552 39.9381C122.553 40.1941 122.447 40.4079 122.235 40.5794C119.938 42.5935 118.088 44.1793 116.685 45.3366C115.281 46.494 114.26 47.2873 113.622 47.7164C109.878 50.5041 107.024 51.9017 105.062 51.9092C103.867 51.9138 102.735 51.5555 101.666 50.8342C100.682 50.1553 100.145 49.304 100.056 48.2804C100.05 46.7017 100.875 44.8425 102.531 42.7028C104.016 40.7345 105.335 39.6201 106.486 39.3597C107.04 39.3575 107.318 39.5485 107.32 39.9325C107.321 40.2738 106.642 41.2151 105.283 42.7563C104.094 44.2969 103.46 45.75 103.379 47.1156C103.386 48.8223 104.179 49.6939 105.757 49.7305C107.549 49.7237 112.913 46.3751 121.847 39.6848C121.932 39.5992 122.06 39.556 122.231 39.5554C122.359 39.5549 122.466 39.6825 122.552 39.9381ZM224.135 58.4932C221.922 59.867 220.133 60.7485 218.77 61.1378C218.343 61.2247 217.661 61.27 216.722 61.2736C215.826 61.3197 214.696 61.3667 213.331 61.4146C211.709 61.4208 210.023 61.2993 208.273 61.05C206.523 60.8433 204.687 60.4664 202.765 59.919C202.039 59.8792 198.323 58.7414 191.616 56.5057L178.544 52.4598C172.294 58.1584 166.379 62.4051 160.801 65.1998C153.05 69.1122 144.588 71.086 135.415 71.1211C129.997 71.1418 125.662 70.1558 122.412 68.1629C118.947 65.9575 117.143 62.743 116.999 58.5195C116.978 53.2289 119.842 48.8446 125.588 45.3665C130.611 42.3179 135.832 40.7833 141.251 40.7625C148.078 40.7364 155.912 41.9864 164.753 44.5125C167.06 45.229 169.367 45.9455 171.674 46.662C173.98 47.3785 176.33 48.1375 178.722 48.9391C179.658 48.0395 180.677 46.9262 181.782 45.5993C182.886 44.2724 184.117 42.7103 185.476 40.9131C188.404 36.8912 190.675 33.8105 192.288 31.671C193.902 29.5314 194.857 28.2478 195.154 27.82C197.828 24.3537 200.887 20.758 204.328 17.0327C208.493 12.5794 211.13 10.3293 212.239 10.2824C212.495 10.2814 212.56 10.7078 212.436 11.5616C212.395 12.0738 212.291 12.6929 212.123 13.4189C211.955 14.1022 211.744 14.935 211.492 15.9173C211.022 15.7058 210.595 15.5581 210.211 15.4742C209.869 15.3902 209.527 15.3061 209.186 15.2221C208.162 15.226 206.205 16.8762 203.316 20.1726C200.937 22.6991 198.601 25.5241 196.309 28.6475C195.757 29.375 194.802 30.7227 193.444 32.6905C192.087 34.6584 190.262 37.2894 187.971 40.5836C186.486 42.7653 185.17 44.5837 184.023 46.0387C182.92 47.4936 181.943 48.6281 181.092 49.442L193.652 53.5539C199.42 55.4518 204.353 56.8409 208.452 57.7212C212.552 58.6442 215.882 59.1435 218.442 59.219C219.765 59.2139 220.746 59.1035 221.385 58.8877C221.641 58.8014 222.003 58.6507 222.471 58.4356C222.94 58.2631 223.493 57.9623 224.132 57.5332C224.303 57.7032 224.474 57.8519 224.645 57.9792C224.646 58.0219 224.476 58.1932 224.135 58.4932ZM176.173 51.6368C172.157 50.4149 168.847 49.4249 166.241 48.6669C163.636 47.9088 161.649 47.3191 160.283 46.8977C151.527 44.5845 144.717 43.4373 139.853 43.4559C134.221 43.4775 129.532 44.5834 125.786 46.7738C121.23 49.3513 118.963 53.264 118.983 58.5119C118.993 61.2426 120.731 63.6893 124.195 65.852C127.915 68.0138 132.762 69.0832 138.735 69.0604C145.946 69.0327 152.894 67.2995 159.58 63.8605C164.647 61.2384 170.178 57.1638 176.173 51.6368ZM234.675 39.4447C234.676 39.786 234.592 40.021 234.422 40.1496C232.253 42.0353 230.403 43.5997 228.872 44.8429C227.34 46.0435 226.128 46.9441 225.234 47.5449C223.064 49.0039 221.105 50.0994 219.359 50.8314C217.612 51.6061 216.035 51.9962 214.627 52.0016C212.323 52.0104 211.1 50.287 210.959 46.8316C209.938 47.6888 208.47 48.6118 206.554 49.6005C204.723 50.5888 203.189 51.0854 201.951 51.0901C201.098 51.0934 200.308 50.8831 199.581 50.4592C198.854 50.1206 198.49 49.61 198.487 48.9274C198.48 47.0074 200.199 44.6968 203.645 41.9955C205.431 40.666 207.07 39.6571 208.561 38.9687C210.094 38.2801 211.522 37.9333 212.845 37.9283C214.424 37.9222 215.236 38.3031 215.281 39.071C215.285 39.9243 215.031 40.5439 214.521 40.9299C214.01 41.3158 213.456 41.51 212.859 41.5123C212.859 41.4696 212.837 41.3843 212.794 41.2565C212.751 41.1713 212.708 41.0862 212.665 41.001C212.622 40.8732 212.557 40.7241 212.471 40.5537C212.213 39.9574 211.7 39.618 210.931 39.5356C209.225 39.5422 207.308 40.4882 205.182 42.3737C203.013 44.174 201.931 45.7995 201.937 47.2501C201.94 48.1461 202.262 48.6142 202.902 48.6544C205.163 48.6458 207.571 47.7619 210.124 46.0028C210.677 45.6166 211.634 44.6743 212.993 43.1757C213.842 42.1058 214.566 41.6124 215.164 41.6954C215.718 41.6933 215.996 41.9056 215.998 42.3322C215.999 42.7162 215.64 43.5496 214.92 44.8324C214.241 46.0297 213.903 46.9056 213.906 47.4603C213.912 49.0389 214.704 49.8466 216.283 49.8832C218.203 49.8758 221.269 48.4134 225.482 45.4959C226.035 45.1525 227.014 44.4661 228.418 43.4367C229.822 42.4073 231.694 41.0134 234.034 39.2551C234.119 39.1695 234.247 39.1263 234.418 39.1257C234.588 39.125 234.674 39.2313 234.675 39.4447ZM254.204 39.4339C254.205 39.6899 254.12 39.9249 253.95 40.1389C249.017 44.2111 245.996 46.612 244.89 47.3416C240.506 50.1744 235.733 51.6434 230.571 51.7485C228.992 51.7545 227.732 51.4394 226.791 50.803C226.449 50.6336 225.678 49.9539 224.479 48.7638C224.478 48.4651 224.52 48.2303 224.604 48.0593C223.881 48.4888 223.2 48.8754 222.561 49.2191C221.88 49.5631 221.219 49.8643 220.58 50.1227C219.855 50.1255 219.471 50.0203 219.427 49.8072C219.427 49.6792 219.49 49.5296 219.617 49.3584C219.702 49.1874 219.851 48.9522 220.063 48.6527C222.064 47.6637 224.129 46.4825 226.257 45.109C228.342 43.693 230.512 42.0846 232.767 40.284C232.767 40.2413 232.788 40.1772 232.83 40.0917C234.021 39.1485 235.299 38.6316 236.664 38.541C238.797 38.5329 239.868 39.4888 239.875 41.4088C239.88 42.6888 239.224 44.206 237.909 45.9603C236.763 47.5434 235.615 48.6785 234.466 49.3655C237.111 49.3554 240.583 47.9768 244.882 45.2296C245.861 44.6712 247.053 43.8986 248.457 42.9119C249.861 41.8825 251.541 40.6174 253.498 39.1166C253.626 39.0734 253.776 39.0515 253.946 39.0509C254.074 39.0504 254.16 39.178 254.204 39.4339ZM236.806 42.2525C236.802 41.1859 236.246 40.6547 235.136 40.6589C234.88 40.6599 234.646 40.6608 234.432 40.6616C234.219 40.6624 234.048 40.7058 233.921 40.7916C232.305 42.1631 230.816 43.4062 229.455 44.5207C228.051 45.5928 226.753 46.5577 225.562 47.4156C225.775 47.4148 225.967 47.4568 226.138 47.5414C227.593 48.4319 228.832 48.9178 229.856 48.9992C230.752 48.9958 231.626 48.8004 232.478 48.4132C233.33 47.9832 234.116 47.3189 234.838 46.4201C235.475 45.6923 235.942 45.0079 236.238 44.3667C236.534 43.6829 236.724 42.9782 236.806 42.2525ZM290.157 7.61593C290.163 9.36525 288.17 12.6156 284.178 17.3669C280.525 21.6476 276.87 25.395 273.213 28.609C269.598 31.8229 265.918 34.5463 262.172 36.7793C261.534 37.2085 260.895 37.6162 260.257 38.0027C259.618 38.3891 258.958 38.7757 258.277 39.1623C257 39.9778 255.126 40.9024 252.656 41.9358L249.028 47.3258C249.369 47.1111 250.433 46.4244 252.22 45.2655C254.051 44.0638 256.625 42.3473 259.945 40.1159C262.286 38.5709 263.883 37.7755 264.736 37.7295C265.333 37.7272 265.633 38.0461 265.635 38.6861C265.636 38.7714 265.487 39.0493 265.191 39.5198C264.936 39.9474 264.491 40.5891 263.854 41.4449C262.751 43.0278 262.201 44.3526 262.205 45.4193C262.207 45.8033 262.208 46.1446 262.209 46.4433C262.253 46.7418 262.339 46.9974 262.468 47.2103C262.64 47.4656 262.918 47.6352 263.302 47.7191C263.686 47.803 264.177 47.8864 264.775 47.9694C265.884 47.9652 268.864 46.2044 273.715 42.6872C276.991 40.2426 278.629 39.0203 278.629 39.0203C278.799 39.0197 278.928 39.2112 279.015 39.5948C279.015 39.7228 278.527 40.2154 277.549 41.0725C276.017 42.273 275.039 43.1301 274.614 43.6437C273.934 44.2437 273.19 44.8439 272.381 45.4443C271.616 46.0446 270.765 46.6665 269.828 47.3101C266.933 48.9852 264.633 49.8473 262.926 49.8965C260.452 49.906 259.146 48.8017 259.01 46.5835C259.008 46.1995 259.049 45.6874 259.132 45.047C259.214 44.3641 259.339 43.5316 259.506 42.5496C259.378 42.5501 259.186 42.5721 258.93 42.6158C258.675 42.6594 258.376 42.7886 258.036 43.0032C257.908 43.089 257.227 43.5823 255.993 44.4831C254.802 45.341 253.079 46.6276 250.824 48.3429C249.59 49.2436 248.59 49.9301 247.824 50.4024C247.015 50.8748 246.398 51.1332 245.971 51.1775C245.715 51.1785 245.522 50.9445 245.392 50.4757C245.391 50.0917 245.602 49.5576 246.026 48.8733C246.407 48.1465 246.98 47.2056 247.743 46.0507C249.101 44.1255 250.205 42.5852 251.054 41.43C251.903 40.2747 252.454 39.4832 252.709 39.0556C254.659 35.9334 257.036 32.6176 259.839 29.1082C262.684 25.5986 265.976 21.8313 269.715 17.8063C277.703 9.07164 283.148 4.63476 286.049 4.49565C287.073 4.49172 288.012 4.80813 288.868 5.44485C289.724 6.03891 290.153 6.76261 290.157 7.61593ZM287.215 8.33121C287.211 7.09388 286.504 6.47791 285.096 6.48331C283.304 6.49017 280.686 8.10021 277.243 11.3134C276.223 12.3413 274.905 13.7544 273.291 15.5526C271.719 17.3506 269.829 19.5339 267.62 22.1024C265.411 24.7988 263.543 27.0673 262.014 28.9079C260.485 30.7058 259.296 32.1397 258.446 33.2096C257.088 35.0068 256.048 36.4615 255.327 37.5736C254.606 38.643 254.161 39.4554 253.992 40.0107C255.869 39.7048 259.572 37.4933 265.103 33.3761C267.911 31.232 270.527 29.0886 272.95 26.946C275.417 24.8032 277.734 22.597 279.901 20.3273C284.703 15.1462 287.141 11.1475 287.215 8.33121Z" fill="black"/>
</svg>
